<svg width="10" height="8" viewBox="0 0 10 8" fill="none" xmlns="http://www.w3.org/2000/svg">
<path d="M0.869555 0C0.389771 0 0 0.353077 0 0.787692V1.37846H9.13033V0.787692C9.13033 0.353077 8.74056 0 8.26078 0H0.869555ZM0 2.36308V5.12C0 5.55462 0.389771 5.90769 0.869555 5.90769H8.26078C8.74056 5.90769 9.13033 5.55462 9.13033 5.12V2.36308H0ZM1.52172 2.95385H4.99994V3.34769H1.52172V2.95385ZM9.56511 3.75385V5.12C9.56511 5.77154 8.98003 6.30154 8.26078 6.30154H0.869555C0.843231 6.30154 0.814359 6.29692 0.788035 6.29538L0.99863 7.34769C1.03939 7.55538 1.16167 7.73846 1.35189 7.85846C1.49964 7.95231 1.67118 8 1.84781 8C1.89876 8 1.9531 7.99615 2.00405 7.98769L9.27979 6.81231C9.50821 6.77538 9.71117 6.65846 9.84364 6.48615C9.97611 6.31385 10.0271 6.10846 9.9863 5.90154L9.56511 3.75385Z" fill="#A9A9A9"/>
</svg>
