<svg width="11" height="8" viewBox="0 0 11 8" fill="none" xmlns="http://www.w3.org/2000/svg">
<path d="M5.91937 0C3.96859 0 3.24414 1.44243 3.80187 2.66447C3.73227 2.70888 3.62055 2.84786 3.64375 3.09211C3.69016 3.53618 3.89898 3.64227 4.015 3.66447C4.06141 4.08635 4.3407 4.57812 4.50313 4.64474C4.50313 4.93339 4.49883 5.17516 4.47563 5.48684C4.11984 6.38076 1.84594 6.17352 1.55375 7.77632C1.54086 7.84622 1.61648 8 1.76688 8H9.24C9.46344 8 9.45914 7.84211 9.44625 7.76974C9.14891 6.17352 6.88016 6.37993 6.52437 5.48684C6.50117 5.15296 6.49687 4.93339 6.49687 4.64474C6.6593 4.57812 6.91797 4.06415 6.96438 3.66447C7.08039 3.66447 7.26602 3.53043 7.33563 3.08553C7.35883 2.84128 7.26344 2.68668 7.17062 2.66447C7.54187 2.22039 7.47484 0.401316 6.105 0.401316L5.91937 0ZM3.33437 1.05263C1.8657 1.07648 1.22203 2.1949 1.66375 3.15132C1.61648 3.17352 1.52367 3.29112 1.54688 3.49342C1.59414 3.85362 1.73422 3.94079 1.82875 3.94079C1.87516 4.27796 2.08312 4.65625 2.2 4.72368C2.2 4.94819 2.20258 4.94161 2.17937 5.21053C1.98859 5.78618 0 5.74342 0 7.15789C0 7.15789 0 7.36842 0.22 7.36842H1.21687C1.55289 6.45888 2.46641 6.10855 3.15562 5.84868C3.53547 5.70559 3.92477 5.56086 4.0425 5.38158C4.05539 5.18586 4.06227 5.01974 4.06313 4.83553C3.8543 4.60691 3.69875 4.25082 3.62313 3.94737C3.44438 3.82072 3.25102 3.5773 3.20375 3.125C3.18313 2.91036 3.23039 2.73191 3.30687 2.59211C3.13242 2.07319 3.14359 1.53125 3.33437 1.05263ZM8.36 1.05263C8.14945 1.05263 7.90109 1.06908 7.66563 1.10526C7.8418 1.59951 7.84867 2.18997 7.69312 2.61184C7.76188 2.75658 7.79367 2.93257 7.77562 3.125L7.76875 3.13816V3.15132C7.70344 3.56497 7.54445 3.81661 7.35625 3.95395C7.28492 4.23849 7.13969 4.59786 6.93687 4.82895C6.93773 5.00987 6.94461 5.1727 6.9575 5.38158C7.07523 5.56086 7.46539 5.70559 7.84438 5.84868C8.53273 6.10773 9.44625 6.45888 9.78312 7.36842H10.78C11 7.36842 11 7.16447 11 7.16447C11.0009 5.53618 9.11711 5.92188 8.83438 5.17763C8.81031 4.92928 8.80688 4.9523 8.80688 4.70395C8.92461 4.63651 9.14117 4.2574 9.16438 3.94079C9.25891 3.94079 9.39898 3.84786 9.44625 3.48684C9.46945 3.30674 9.39984 3.17352 9.32938 3.15132C9.61297 2.7903 9.56656 1.36842 8.50437 1.36842L8.36 1.05263Z" fill="#A9A9A9"/>
</svg>
