<svg width="10" height="10" viewBox="0 0 10 10" fill="none" xmlns="http://www.w3.org/2000/svg">
<path d="M6.875 0C5.14974 0 3.75 0.745443 3.75 1.66667C3.75 2.58789 5.14974 3.33333 6.875 3.33333C8.60026 3.33333 10 2.58789 10 1.66667C10 0.745443 8.60026 0 6.875 0ZM3.77604 2.29167C3.75977 2.36003 3.75 2.42839 3.75 2.5V2.91667C3.75 3.26986 3.95671 3.59701 4.3099 3.86719C4.91862 3.99089 5.44434 4.20898 5.84635 4.49219C6.16699 4.55241 6.5153 4.58333 6.875 4.58333C8.60026 4.58333 10 3.83789 10 2.91667V2.5C10 2.42839 9.99023 2.36003 9.97396 2.29167C9.7819 3.11361 8.46842 3.75 6.875 3.75C5.28158 3.75 3.9681 3.11361 3.77604 2.29167ZM9.97396 3.54167C9.7819 4.36361 8.46842 5 6.875 5C6.69922 5 6.53483 4.98861 6.36719 4.97396C6.56087 5.23275 6.66504 5.52734 6.66667 5.83333C6.73503 5.83496 6.80501 5.83333 6.875 5.83333C8.60026 5.83333 10 5.08789 10 4.16667V3.75C10 3.67839 9.99023 3.61003 9.97396 3.54167ZM3.125 4.16667C1.39974 4.16667 0 4.91211 0 5.83333C0 6.75456 1.39974 7.5 3.125 7.5C4.85026 7.5 6.25 6.75456 6.25 5.83333C6.25 4.91211 4.85026 4.16667 3.125 4.16667ZM9.97396 4.79167C9.7819 5.61361 8.46842 6.25 6.875 6.25C6.80501 6.25 6.73503 6.25163 6.66667 6.25V7.08333C6.73503 7.08496 6.80501 7.08333 6.875 7.08333C8.60026 7.08333 10 6.33789 10 5.41667V5C10 4.92839 9.99023 4.86003 9.97396 4.79167ZM9.97396 6.04167C9.7819 6.86361 8.46842 7.5 6.875 7.5C6.80501 7.5 6.73503 7.50163 6.66667 7.5V8.33333C6.73503 8.33496 6.80501 8.33333 6.875 8.33333C8.60026 8.33333 10 7.58789 10 6.66667V6.25C10 6.17839 9.99023 6.11003 9.97396 6.04167ZM0.0260417 6.45833C0.00976562 6.52669 0 6.59505 0 6.66667V7.08333C0 8.00456 1.39974 8.75 3.125 8.75C4.85026 8.75 6.25 8.00456 6.25 7.08333V6.66667C6.25 6.59505 6.24023 6.52669 6.22396 6.45833C6.0319 7.28027 4.71842 7.91667 3.125 7.91667C1.53158 7.91667 0.218099 7.28027 0.0260417 6.45833ZM0.0260417 7.70833C0.00976562 7.77669 0 7.84505 0 7.91667V8.33333C0 9.25456 1.39974 10 3.125 10C4.85026 10 6.25 9.25456 6.25 8.33333V7.91667C6.25 7.84505 6.24023 7.77669 6.22396 7.70833C6.0319 8.53027 4.71842 9.16667 3.125 9.16667C1.53158 9.16667 0.218099 8.53027 0.0260417 7.70833Z" fill="#A9A9A9"/>
</svg>
